External Loads File
version=1
nRows=87
nColumns=13
Range=5.000000e-03-10 seconds
endheader
time 	forceRightX 	forceRightY 	forceRightZ 	pointRightX 	pointRightY 	pointRightZ 	forceLeftX 	forceLeftY 	forceLeftZ 	pointLeftX 	pointLeftY 	pointLeftZ 		
0.005000 13.652336 106.193666 -0.000000 0.485389 0.408046 -0.192090 21.671261 146.976853 -0.000000 0.181421 0.250729 -0.440779
0.010000 12.660451 107.046402 -0.000000 0.485360 0.408084 -0.192086 20.552591 146.456012 -0.000000 0.181422 0.250704 -0.440785
0.015000 11.727995 107.809847 -0.000000 0.485320 0.408112 -0.192075 19.515213 146.004644 -0.000000 0.181430 0.250660 -0.440787
0.020000 10.837068 108.438647 -0.000000 0.485288 0.408150 -0.192080 18.489944 145.642133 -0.000000 0.181444 0.250376 -0.440795
0.025000 10.009876 108.908518 -0.000000 0.484929 0.408603 -0.191876 17.521437 145.351767 -0.000000 0.181388 0.250438 -0.440694
0.030000 9.387466 109.212115 -0.000000 0.484861 0.408705 -0.191892 16.825201 145.092189 -0.000000 0.181389 0.250423 -0.440643
0.035000 8.889687 109.378975 -0.000000 0.484838 0.408699 -0.191904 16.303274 144.865608 -0.000000 0.181406 0.250394 -0.440616
0.040000 8.474565 109.446878 -0.000000 0.484819 0.408779 -0.191922 15.857710 144.659291 -0.000000 0.181428 0.250352 -0.440622
0.045000 8.200520 109.454945 -0.000000 0.484795 0.408847 -0.191934 15.484700 144.431436 -0.000000 0.181449 0.250316 -0.440601
0.050000 8.031308 109.445130 -0.000000 0.484752 0.409093 -0.191934 15.095335 144.160397 -0.000000 0.181482 0.250283 -0.440615
0.055000 8.057374 109.430469 -0.000000 0.484733 0.409136 -0.191936 14.850882 143.831330 -0.000000 0.181507 0.250216 -0.440616
0.060000 8.183658 109.415659 -0.000000 0.484695 0.409172 -0.191959 14.726334 143.490284 -0.000000 0.181537 0.250168 -0.440592
0.065000 8.340229 109.397858 -0.000000 0.484677 0.409262 -0.191977 14.753836 143.216376 -0.000000 0.181546 0.250113 -0.440602
0.070000 8.516001 109.381598 -0.000000 0.484605 0.409305 -0.191938 15.015481 143.079399 -0.000000 0.181538 0.250074 -0.440575
0.075000 8.650037 109.383585 -0.000000 0.484610 0.409349 -0.191990 15.448272 143.101578 -0.000000 0.181591 0.250033 -0.440607
0.080000 8.706898 109.415191 -0.000000 0.484568 0.409400 -0.191988 15.978149 143.255829 -0.000000 0.181611 0.249983 -0.440614
0.085000 8.659891 109.481461 -0.000000 0.484527 0.409452 -0.191995 16.567826 143.518953 -0.000000 0.181612 0.249920 -0.440618
0.090000 8.509063 109.581448 -0.000000 0.484500 0.409501 -0.192007 17.210848 143.880090 -0.000000 0.181622 0.249868 -0.440602
0.095000 8.269876 109.710806 -0.000000 0.484455 0.409572 -0.191992 17.859008 144.328614 -0.000000 0.181635 0.249811 -0.440610
0.100000 8.017014 109.862245 -0.000000 0.484415 0.409622 -0.192011 18.508004 144.849619 -0.000000 0.181652 0.249775 -0.440609
0.105000 7.785989 110.034757 -0.000000 0.484356 0.409675 -0.192016 19.112167 145.430087 -0.000000 0.181668 0.249723 -0.440612
0.110000 7.644980 110.227826 -0.000000 0.484313 0.409708 -0.192005 19.688019 146.034922 -0.000000 0.181671 0.249681 -0.440609
0.115000 7.588707 110.449043 -0.000000 0.484230 0.409811 -0.191973 20.188394 146.634953 -0.000000 0.181665 0.249635 -0.440577
0.120000 7.637643 110.701920 -0.000000 0.484202 0.409862 -0.192006 20.633664 147.182152 -0.000000 0.181720 0.249585 -0.440603
0.125000 7.749613 110.982017 -0.000000 0.484140 0.409933 -0.191956 20.971012 147.613793 -0.000000 0.181705 0.249523 -0.440573
0.130000 7.849280 111.274014 -0.000000 0.484112 0.410021 -0.192013 21.105304 147.875100 -0.000000 0.181760 0.249464 -0.440592
0.135000 7.914763 111.559224 -0.000000 0.484034 0.410096 -0.191966 20.998864 147.927919 -0.000000 0.181780 0.249367 -0.440560
0.140000 7.943414 111.832035 -0.000000 0.483998 0.410198 -0.191960 20.604175 147.751825 -0.000000 0.181797 0.249314 -0.440557
0.145000 7.925661 112.097397 -0.000000 0.483969 0.410267 -0.191997 19.875626 147.353793 -0.000000 0.181872 0.249216 -0.440584
0.150000 7.901943 112.347610 -0.000000 0.483927 0.410353 -0.191981 18.914586 146.769153 -0.000000 0.181912 0.249137 -0.440590
0.155000 7.866573 112.560353 -0.000000 0.483886 0.410432 -0.191944 17.828936 146.059611 -0.000000 0.181961 0.249050 -0.440609
0.160000 7.811198 112.706129 -0.000000 0.483837 0.410516 -0.191955 16.736640 145.281750 -0.000000 0.182008 0.248983 -0.440607
0.165000 7.717464 112.767767 -0.000000 0.483800 0.410597 -0.191966 15.719758 144.492055 -0.000000 0.182051 0.248911 -0.440599
0.170000 7.579933 112.751036 -0.000000 0.483748 0.410689 -0.191964 14.812669 143.743388 -0.000000 0.182082 0.248842 -0.440591
0.175000 7.424804 112.679739 -0.000000 0.483707 0.410770 -0.191985 14.024527 143.077110 -0.000000 0.182120 0.248763 -0.440590
0.180000 7.275613 112.588510 -0.000000 0.483659 0.410843 -0.192000 13.362576 142.540757 -0.000000 0.182156 0.248689 -0.440578
0.185000 7.154167 112.513364 -0.000000 0.483624 0.410972 -0.192014 12.864688 142.185652 -0.000000 0.182185 0.248634 -0.440601
0.190000 7.112740 112.473582 -0.000000 0.483561 0.411054 -0.191995 12.605680 142.037811 -0.000000 0.182183 0.248550 -0.440561
0.195000 7.149863 112.467710 -0.000000 0.483559 0.411161 -0.192047 12.578674 142.099999 -0.000000 0.182228 0.248481 -0.440587
0.200000 7.290563 112.479505 -0.000000 0.483516 0.411233 -0.192040 12.801753 142.343948 -0.000000 0.182246 0.248418 -0.440588
0.205000 7.500548 112.494676 -0.000000 0.483465 0.411301 -0.192055 13.208765 142.723879 -0.000000 0.182260 0.248353 -0.440588
0.210000 7.737945 112.497552 -0.000000 0.483434 0.411378 -0.192063 13.739066 143.196757 -0.000000 0.182269 0.248246 -0.440576
0.215000 8.000483 112.474060 -0.000000 0.483382 0.411442 -0.192075 14.395216 143.725345 -0.000000 0.182292 0.248192 -0.440577
0.220000 8.226925 112.428670 -0.000000 0.483337 0.411541 -0.192090 15.083275 144.271607 -0.000000 0.182303 0.248093 -0.440545
0.225000 8.418744 112.369406 -0.000000 0.483300 0.411628 -0.192076 15.805045 144.792778 -0.000000 0.182327 0.248018 -0.440547
0.230000 8.514711 112.303985 -0.000000 0.483271 0.411732 -0.192086 16.539842 145.281606 -0.000000 0.182351 0.247941 -0.440542
0.235000 8.469241 112.233457 -0.000000 0.483198 0.411855 -0.192047 17.279599 145.742936 -0.000000 0.182361 0.247867 -0.440497
0.240000 8.265912 112.156052 -0.000000 0.483180 0.411948 -0.192097 17.980658 146.173938 -0.000000 0.182407 0.247784 -0.440503
0.245000 7.921506 112.069913 -0.000000 0.483117 0.412058 -0.192078 18.582881 146.562751 -0.000000 0.182424 0.247680 -0.440471
0.250000 7.474643 111.976915 -0.000000 0.483092 0.412154 -0.192100 19.021348 146.880557 -0.000000 0.182503 0.247556 -0.440489
0.255000 7.016766 111.882483 -0.000000 0.483038 0.412253 -0.192057 19.296470 147.075790 -0.000000 0.182530 0.247462 -0.440454
0.260000 6.572573 111.798872 -0.000000 0.482987 0.412333 -0.192036 19.358934 147.122440 -0.000000 0.182578 0.247344 -0.440457
0.265000 6.190345 111.734500 -0.000000 0.482991 0.412415 -0.192064 19.223462 147.022883 -0.000000 0.182656 0.247232 -0.440491
0.270000 5.935071 111.700966 -0.000000 0.482959 0.412497 -0.192067 18.925899 146.800857 -0.000000 0.182711 0.247147 -0.440504
0.275000 5.844853 111.719515 -0.000000 0.482932 0.412582 -0.192082 18.487021 146.503055 -0.000000 0.182766 0.247046 -0.440508
0.280000 5.947093 111.808052 -0.000000 0.482885 0.412696 -0.192072 17.970673 146.187300 -0.000000 0.182830 0.246940 -0.440536
0.285000 6.265904 111.962946 -0.000000 0.482837 0.412809 -0.192045 17.471758 145.887773 -0.000000 0.182865 0.246861 -0.440514
0.290000 6.727203 112.156422 -0.000000 0.482795 0.412901 -0.192032 16.972591 145.611678 -0.000000 0.182903 0.246752 -0.440532
0.295000 7.242952 112.342336 -0.000000 0.482743 0.413038 -0.192054 16.467019 145.352876 -0.000000 0.182974 0.246658 -0.440537
0.300000 7.738232 112.478477 -0.000000 0.482718 0.413182 -0.192062 15.971311 145.110398 -0.000000 0.183070 0.246552 -0.440584
0.305000 8.162260 112.543445 -0.000000 0.482649 0.413300 -0.192027 15.502725 144.887889 -0.000000 0.183099 0.246401 -0.440579
0.310000 8.476893 112.535831 -0.000000 0.482573 0.413425 -0.192017 15.075574 144.704069 -0.000000 0.183169 0.246319 -0.440593
0.315000 8.657554 112.465352 -0.000000 0.482537 0.413548 -0.192050 14.699923 144.586493 -0.000000 0.183237 0.246205 -0.440604
0.320000 8.718655 112.346733 -0.000000 0.482450 0.413663 -0.192041 14.397897 144.549082 -0.000000 0.183270 0.246046 -0.440555
0.325000 8.702702 112.200086 -0.000000 0.482409 0.413787 -0.192070 14.217902 144.599110 -0.000000 0.183320 0.245927 -0.440535
0.330000 8.618855 112.050968 -0.000000 0.482352 0.413926 -0.192093 14.168604 144.743737 -0.000000 0.183367 0.245793 -0.440516
0.335000 8.502005 111.914118 -0.000000 0.482291 0.414055 -0.192079 14.267225 144.960354 -0.000000 0.183430 0.245686 -0.440507
0.340000 8.344550 111.792269 -0.000000 0.482229 0.414216 -0.192084 14.466506 145.209268 -0.000000 0.183479 0.245588 -0.440493
0.345000 8.170096 111.677091 -0.000000 0.482173 0.414327 -0.192089 14.777596 145.443241 -0.000000 0.183537 0.245499 -0.440482
0.350000 7.967138 111.564715 -0.000000 0.482123 0.414444 -0.192060 15.149968 145.623883 -0.000000 0.183591 0.245376 -0.440493
0.355000 7.743043 111.454873 -0.000000 0.482044 0.414597 -0.192048 15.533679 145.735987 -0.000000 0.183642 0.245234 -0.440485
0.360000 7.516726 111.348758 -0.000000 0.481966 0.414765 -0.192060 15.914860 145.801771 -0.000000 0.183706 0.245059 -0.440510
0.365000 7.335275 111.246765 -0.000000 0.481897 0.414925 -0.192022 16.323898 145.841390 -0.000000 0.183766 0.244930 -0.440515
0.370000 7.178310 111.155786 -0.000000 0.481822 0.415127 -0.192019 16.676704 145.851169 -0.000000 0.183834 0.244766 -0.440512
0.375000 7.091098 111.082075 -0.000000 0.481751 0.415321 -0.191981 16.971455 145.805561 -0.000000 0.183907 0.244593 -0.440528
0.380000 7.091483 111.034710 -0.000000 0.481663 0.415532 -0.191988 17.177753 145.695193 -0.000000 0.183977 0.244413 -0.440542
0.385000 7.207824 111.009739 -0.000000 0.481582 0.415684 -0.192010 17.287959 145.512964 -0.000000 0.184069 0.244218 -0.440512
0.390000 7.383410 110.988324 -0.000000 0.481491 0.415868 -0.192018 17.237839 145.274908 -0.000000 0.184151 0.243991 -0.440509
0.395000 7.586617 110.943193 -0.000000 0.481363 0.416073 -0.192025 17.061124 145.013998 -0.000000 0.184258 0.243787 -0.440521
0.400000 7.820632 110.857770 -0.000000 0.481266 0.416262 -0.192048 16.823230 144.753632 -0.000000 0.184354 0.243626 -0.440519
0.405000 8.045765 110.739179 -0.000000 0.481155 0.416477 -0.192068 16.479835 144.506880 -0.000000 0.184443 0.243448 -0.440507
0.410000 8.294119 110.603798 -0.000000 0.481042 0.416658 -0.192037 16.092559 144.282905 -0.000000 0.184532 0.243289 -0.440515
0.415000 8.523986 110.471544 -0.000000 0.480928 0.416899 -0.192030 15.682180 144.105945 -0.000000 0.184644 0.243137 -0.440505
0.420000 8.690165 110.346798 -0.000000 0.480800 0.417187 -0.192024 15.290310 143.981498 -0.000000 0.184734 0.242963 -0.440498
0.425000 8.782847 110.218239 -0.000000 0.480670 0.417385 -0.192050 15.008757 143.903823 -0.000000 0.184814 0.242776 -0.440479
0.430000 8.721459 110.081135 -0.000000 0.480509 0.417631 -0.192068 14.819143 143.888120 -0.000000 0.184907 0.242550 -0.440467
0.435000 8.564917 109.925741 -0.000000 0.480364 0.417853 -0.192084 14.826139 143.933271 -0.000000 0.184991 0.242338 -0.440470
